# xmcd CD database file
#
# Track frame offsets:
#	150
#	20026
#	38295
#	56835
#	70395
#	86490
#	104640
#	124125
#	141735
#	156436
#	169335
#	184935
#	198405
#	212430
#
# Disc length: 2992 seconds
#
# Revision: 0
# Processed by: cddbd v1.5.2PL0 Copyright (c) Steve Scherf et al.
# Submitted via: CDex 1.82
#
DISCID=d50bae0e
DTITLE=Hugh Coltman - Shadows - Songs of Nat King Cole CD1
DYEAR=2016
DGENRE=Jazz
TTITLE0=Are You Disenchanted
TTITLE1=What'll I Do
TTITLE2=Pretend
TTITLE3=I Can't Be Bothered
TTITLE4=Annabelle
TTITLE5=Nature Boy
TTITLE6=Walkin'
TTITLE7=Mona Lisa
TTITLE8=Meet Meat No Special Place
TTITLE9=The Shadows
TTITLE10=I Never Had A Chance 
TTITLE11=Smile
TTITLE12=Morning Star
TTITLE13=Small Towns Smile Towns
EXTD=YEAR: 2016
EXTT0=
EXTT1=
EXTT2=
EXTT3=
EXTT4=
EXTT5=
EXTT6=
EXTT7=
EXTT8=
EXTT9=
EXTT10=
EXTT11=
EXTT12=
EXTT13=
PLAYORDER=
